%TF.GenerationSoftware,KiCad,Pcbnew,9.0.5*%
%TF.CreationDate,2026-02-18T13:17:51-05:00*%
%TF.ProjectId,rtc+nvm,7274632b-6e76-46d2-9e6b-696361645f70,rev?*%
%TF.SameCoordinates,Original*%
%TF.FileFunction,Copper,L1,Top*%
%TF.FilePolarity,Positive*%
%FSLAX46Y46*%
G04 Gerber Fmt 4.6, Leading zero omitted, Abs format (unit mm)*
G04 Created by KiCad (PCBNEW 9.0.5) date 2026-02-18 13:17:51*
%MOMM*%
%LPD*%
G01*
G04 APERTURE LIST*
G04 Aperture macros list*
%AMRoundRect*
0 Rectangle with rounded corners*
0 $1 Rounding radius*
0 $2 $3 $4 $5 $6 $7 $8 $9 X,Y pos of 4 corners*
0 Add a 4 corners polygon primitive as box body*
4,1,4,$2,$3,$4,$5,$6,$7,$8,$9,$2,$3,0*
0 Add four circle primitives for the rounded corners*
1,1,$1+$1,$2,$3*
1,1,$1+$1,$4,$5*
1,1,$1+$1,$6,$7*
1,1,$1+$1,$8,$9*
0 Add four rect primitives between the rounded corners*
20,1,$1+$1,$2,$3,$4,$5,0*
20,1,$1+$1,$4,$5,$6,$7,0*
20,1,$1+$1,$6,$7,$8,$9,0*
20,1,$1+$1,$8,$9,$2,$3,0*%
G04 Aperture macros list end*
%TA.AperFunction,SMDPad,CuDef*%
%ADD10RoundRect,0.250000X-0.250000X-0.475000X0.250000X-0.475000X0.250000X0.475000X-0.250000X0.475000X0*%
%TD*%
%TA.AperFunction,SMDPad,CuDef*%
%ADD11RoundRect,0.150000X-0.825000X-0.150000X0.825000X-0.150000X0.825000X0.150000X-0.825000X0.150000X0*%
%TD*%
%TA.AperFunction,ComponentPad*%
%ADD12R,1.700000X1.700000*%
%TD*%
%TA.AperFunction,ComponentPad*%
%ADD13C,1.700000*%
%TD*%
%TA.AperFunction,SMDPad,CuDef*%
%ADD14RoundRect,0.160000X0.160000X-0.197500X0.160000X0.197500X-0.160000X0.197500X-0.160000X-0.197500X0*%
%TD*%
%TA.AperFunction,SMDPad,CuDef*%
%ADD15R,5.100000X2.500000*%
%TD*%
%TA.AperFunction,SMDPad,CuDef*%
%ADD16C,10.200000*%
%TD*%
%TA.AperFunction,Conductor*%
%ADD17C,0.600000*%
%TD*%
%TA.AperFunction,Conductor*%
%ADD18C,0.240000*%
%TD*%
%TA.AperFunction,Conductor*%
%ADD19C,0.200000*%
%TD*%
G04 APERTURE END LIST*
D10*
%TO.P,C1,1*%
%TO.N,+3V3*%
X123775000Y-62895000D03*
%TO.P,C1,2*%
%TO.N,GND*%
X125675000Y-62895000D03*
%TD*%
D11*
%TO.P,U1,1,32KHZ*%
%TO.N,unconnected-(U1-32KHZ-Pad1)*%
X118025000Y-70795000D03*
%TO.P,U1,2,VCC*%
%TO.N,+3V3*%
X118025000Y-72065000D03*
%TO.P,U1,3,~{INT}/SQW*%
%TO.N,SQW*%
X118025000Y-73335000D03*
%TO.P,U1,4,~{RST}*%
%TO.N,unconnected-(U1-~{RST}-Pad4)*%
X118025000Y-74605000D03*
%TO.P,U1,5,GND*%
%TO.N,GND*%
X122975000Y-74605000D03*
%TO.P,U1,6,VBAT*%
%TO.N,VCOIN*%
X122975000Y-73335000D03*
%TO.P,U1,7,SDA*%
%TO.N,SDA*%
X122975000Y-72065000D03*
%TO.P,U1,8,SCL*%
%TO.N,SCL*%
X122975000Y-70795000D03*
%TD*%
D12*
%TO.P,J2,1,Pin_1*%
%TO.N,GND*%
X116800000Y-77200000D03*
D13*
%TO.P,J2,2,Pin_2*%
%TO.N,+3V3*%
X119340000Y-77200000D03*
%TO.P,J2,3,Pin_3*%
%TO.N,SQW*%
X121880000Y-77200000D03*
%TO.P,J2,4,Pin_4*%
%TO.N,SCL*%
X124420000Y-77200000D03*
%TO.P,J2,5,Pin_5*%
%TO.N,SDA*%
X126960000Y-77200000D03*
%TD*%
D14*
%TO.P,R2,1*%
%TO.N,SCL*%
X124975000Y-67335000D03*
%TO.P,R2,2*%
%TO.N,+3V3*%
X124975000Y-66140000D03*
%TD*%
D11*
%TO.P,U2,1,A0*%
%TO.N,GND*%
X118025000Y-64795000D03*
%TO.P,U2,2,A1*%
X118025000Y-66065000D03*
%TO.P,U2,3,A2*%
X118025000Y-67335000D03*
%TO.P,U2,4,GND*%
X118025000Y-68605000D03*
%TO.P,U2,5,SDA*%
%TO.N,SDA*%
X122975000Y-68605000D03*
%TO.P,U2,6,SCL*%
%TO.N,SCL*%
X122975000Y-67335000D03*
%TO.P,U2,7,WP*%
%TO.N,GND*%
X122975000Y-66065000D03*
%TO.P,U2,8,VCC*%
%TO.N,+3V3*%
X122975000Y-64795000D03*
%TD*%
D14*
%TO.P,R1,1*%
%TO.N,SDA*%
X126175000Y-68600000D03*
%TO.P,R1,2*%
%TO.N,+3V3*%
X126175000Y-67405000D03*
%TD*%
%TO.P,R3,1*%
%TO.N,SQW*%
X116125000Y-73335000D03*
%TO.P,R3,2*%
%TO.N,+3V3*%
X116125000Y-72140000D03*
%TD*%
D15*
%TO.P,J1,1,Pin_1*%
%TO.N,VCOIN*%
X133700000Y-77300000D03*
X133700000Y-62100000D03*
D16*
%TO.P,J1,2,Pin_2*%
%TO.N,GND*%
X133700000Y-69700000D03*
%TD*%
D17*
%TO.N,+3V3*%
X116023270Y-72140000D02*
X115304000Y-72859270D01*
X116125000Y-72140000D02*
X116023270Y-72140000D01*
X116549000Y-64371190D02*
X116549000Y-72065000D01*
X124975000Y-66140000D02*
X124975000Y-65635000D01*
X123775000Y-63995000D02*
X122975000Y-64795000D01*
X115304000Y-72859270D02*
X115304000Y-73810730D01*
X117342270Y-75849000D02*
X117989000Y-75849000D01*
X123775000Y-62895000D02*
X123775000Y-63995000D01*
X117989000Y-75849000D02*
X119340000Y-77200000D01*
X124135000Y-64795000D02*
X122975000Y-64795000D01*
X121176000Y-64795000D02*
X120375000Y-63994000D01*
X125550000Y-66140000D02*
X124975000Y-66140000D01*
X126175000Y-67405000D02*
X126175000Y-66765000D01*
X120375000Y-63994000D02*
X116926190Y-63994000D01*
X115304000Y-73810730D02*
X117342270Y-75849000D01*
X116926190Y-63994000D02*
X116549000Y-64371190D01*
X124975000Y-65635000D02*
X124135000Y-64795000D01*
X122975000Y-64795000D02*
X121176000Y-64795000D01*
X116200000Y-72065000D02*
X116125000Y-72140000D01*
X126175000Y-66765000D02*
X125550000Y-66140000D01*
X118025000Y-72065000D02*
X116200000Y-72065000D01*
%TO.N,GND*%
X122975000Y-66065000D02*
X120975000Y-66065000D01*
X122975000Y-74605000D02*
X125975000Y-74605000D01*
D18*
X123100000Y-76763955D02*
X123100000Y-78800000D01*
X120500000Y-74916523D02*
X121612477Y-76029000D01*
X120500000Y-66540000D02*
X120500000Y-74916523D01*
X120975000Y-66065000D02*
X120500000Y-66540000D01*
X121612477Y-76029000D02*
X122365045Y-76029000D01*
X122365045Y-76029000D02*
X123100000Y-76763955D01*
D17*
%TO.N,VCOIN*%
X122975000Y-73335000D02*
X127213989Y-73335000D01*
X127213989Y-73335000D02*
X131178989Y-77300000D01*
X131178989Y-77300000D02*
X131500000Y-77300000D01*
D19*
%TO.N,SDA*%
X124966000Y-75206000D02*
X121959032Y-75206000D01*
X122975000Y-72065000D02*
X121775000Y-72065000D01*
X124175000Y-72065000D02*
X124375000Y-71865000D01*
X121475000Y-74721968D02*
X121475000Y-74400000D01*
X121775000Y-72065000D02*
X121475000Y-72365000D01*
D17*
X126170000Y-68605000D02*
X126175000Y-68600000D01*
D19*
X122975000Y-72065000D02*
X124175000Y-72065000D01*
X121959032Y-75206000D02*
X121475000Y-74721968D01*
X121475000Y-72365000D02*
X121475000Y-74721968D01*
X124375000Y-71865000D02*
X124375000Y-68805000D01*
D17*
X122975000Y-68605000D02*
X126170000Y-68605000D01*
D19*
X126960000Y-77200000D02*
X124966000Y-75206000D01*
%TO.N,SCL*%
X121775000Y-70795000D02*
X121075000Y-71495000D01*
D17*
X124975000Y-67335000D02*
X122975000Y-67335000D01*
D19*
X121792932Y-75607000D02*
X121075000Y-74889068D01*
X121075000Y-68035000D02*
X121075000Y-71495000D01*
X122827000Y-75607000D02*
X121792932Y-75607000D01*
X122975000Y-70795000D02*
X121775000Y-70795000D01*
X122975000Y-67335000D02*
X121775000Y-67335000D01*
X121075000Y-71495000D02*
X121075000Y-74889068D01*
X122975000Y-70795000D02*
X122000001Y-70795000D01*
X121775000Y-67335000D02*
X121075000Y-68035000D01*
X124420000Y-77200000D02*
X122827000Y-75607000D01*
%TO.N,SQW*%
X121880000Y-77200000D02*
X119975000Y-75295000D01*
X119975000Y-75295000D02*
X119975000Y-74065000D01*
D17*
X118025000Y-73335000D02*
X116125000Y-73335000D01*
D19*
X119975000Y-74065000D02*
X119245000Y-73335000D01*
X119245000Y-73335000D02*
X118025000Y-73335000D01*
%TD*%
%TA.AperFunction,Conductor*%
%TO.N,GND*%
G36*
X120059099Y-64814185D02*
G01*
X120079741Y-64830819D01*
X120554211Y-65305289D01*
X120616622Y-65367700D01*
X120665712Y-65416790D01*
X120796814Y-65504390D01*
X120796827Y-65504397D01*
X120942498Y-65564735D01*
X120942503Y-65564737D01*
X121097153Y-65595499D01*
X121097156Y-65595500D01*
X121097158Y-65595500D01*
X121400795Y-65595500D01*
X121467834Y-65615185D01*
X121513589Y-65667989D01*
X121523533Y-65737147D01*
X121519871Y-65754095D01*
X121502900Y-65812505D01*
X121502899Y-65812511D01*
X121502704Y-65814998D01*
X121502705Y-65815000D01*
X122851000Y-65815000D01*
X122918039Y-65834685D01*
X122963794Y-65887489D01*
X122975000Y-65939000D01*
X122975000Y-66191000D01*
X122955315Y-66258039D01*
X122902511Y-66303794D01*
X122851000Y-66315000D01*
X121502705Y-66315000D01*
X121502704Y-66315001D01*
X121502899Y-66317486D01*
X121548719Y-66475200D01*
X121618071Y-66592470D01*
X121635254Y-66660194D01*
X121613094Y-66726456D01*
X121558627Y-66770219D01*
X121543439Y-66775363D01*
X121543220Y-66775421D01*
X121543209Y-66775426D01*
X121406290Y-66854475D01*
X121406282Y-66854481D01*
X120594479Y-67666284D01*
X120571694Y-67705750D01*
X120562063Y-67722433D01*
X120540227Y-67760254D01*
X120515423Y-67803214D01*
X120515423Y-67803215D01*
X120474499Y-67955943D01*
X120474499Y-67955945D01*
X120474499Y-68124046D01*
X120474500Y-68124059D01*
X120474500Y-71415939D01*
X120474499Y-71415943D01*
X120474499Y-71574057D01*
X120474500Y-71574060D01*
X120474500Y-73415903D01*
X120454815Y-73482942D01*
X120402011Y-73528697D01*
X120332853Y-73538641D01*
X120269297Y-73509616D01*
X120262819Y-73503584D01*
X119732590Y-72973355D01*
X119732588Y-72973352D01*
X119613717Y-72854481D01*
X119613709Y-72854475D01*
X119497419Y-72787336D01*
X119497416Y-72787335D01*
X119490142Y-72783135D01*
X119476785Y-72775423D01*
X119452210Y-72768838D01*
X119444939Y-72765863D01*
X119423534Y-72748766D01*
X119400143Y-72734508D01*
X119396629Y-72727275D01*
X119390347Y-72722257D01*
X119381583Y-72696300D01*
X119369614Y-72671661D01*
X119370568Y-72663678D01*
X119367996Y-72656059D01*
X119374656Y-72629483D01*
X119377909Y-72602285D01*
X119384958Y-72588384D01*
X119384983Y-72588286D01*
X119385031Y-72588240D01*
X119385165Y-72587977D01*
X119451744Y-72475398D01*
X119497598Y-72317569D01*
X119500500Y-72280694D01*
X119500500Y-71849306D01*
X119497598Y-71812431D01*
X119489902Y-71785942D01*
X119456052Y-71669431D01*
X119451744Y-71654602D01*
X119368081Y-71513135D01*
X119368078Y-71513132D01*
X119363298Y-71506969D01*
X119365750Y-71505066D01*
X119339155Y-71456421D01*
X119344104Y-71386726D01*
X119364940Y-71354304D01*
X119363298Y-71353031D01*
X119368075Y-71346870D01*
X119368081Y-71346865D01*
X119451744Y-71205398D01*
X119497598Y-71047569D01*
X119500500Y-71010694D01*
X119500500Y-70579306D01*
X119497598Y-70542431D01*
X119451744Y-70384602D01*
X119368081Y-70243135D01*
X119368079Y-70243133D01*
X119368076Y-70243129D01*
X119251870Y-70126923D01*
X119251862Y-70126917D01*
X119173681Y-70080681D01*
X119110398Y-70043256D01*
X119110397Y-70043255D01*
X119110396Y-70043255D01*
X119110393Y-70043254D01*
X118952573Y-69997402D01*
X118952567Y-69997401D01*
X118915701Y-69994500D01*
X118915694Y-69994500D01*
X117473500Y-69994500D01*
X117406461Y-69974815D01*
X117360706Y-69922011D01*
X117349500Y-69870500D01*
X117349500Y-69529000D01*
X117369185Y-69461961D01*
X117421989Y-69416206D01*
X117473500Y-69405000D01*
X117775000Y-69405000D01*
X118275000Y-69405000D01*
X118915634Y-69405000D01*
X118915649Y-69404999D01*
X118952489Y-69402100D01*
X118952495Y-69402099D01*
X119110193Y-69356283D01*
X119110196Y-69356282D01*
X119251552Y-69272685D01*
X119251561Y-69272678D01*
X119367678Y-69156561D01*
X119367685Y-69156552D01*
X119451281Y-69015198D01*
X119497100Y-68857486D01*
X119497295Y-68855001D01*
X119497295Y-68855000D01*
X118275000Y-68855000D01*
X118275000Y-69405000D01*
X117775000Y-69405000D01*
X117775000Y-68355000D01*
X118275000Y-68355000D01*
X119497295Y-68355000D01*
X119497295Y-68354998D01*
X119497100Y-68352513D01*
X119451281Y-68194801D01*
X119367685Y-68053447D01*
X119362900Y-68047278D01*
X119365252Y-68045453D01*
X119338445Y-67996405D01*
X119343402Y-67926712D01*
X119364465Y-67893936D01*
X119362900Y-67892722D01*
X119367685Y-67886552D01*
X119451281Y-67745198D01*
X119497100Y-67587486D01*
X119497295Y-67585001D01*
X119497295Y-67585000D01*
X118275000Y-67585000D01*
X118275000Y-68355000D01*
X117775000Y-68355000D01*
X117775000Y-67085000D01*
X118275000Y-67085000D01*
X119497295Y-67085000D01*
X119497295Y-67084998D01*
X119497100Y-67082513D01*
X119451281Y-66924801D01*
X119367685Y-66783447D01*
X119362900Y-66777278D01*
X119365252Y-66775453D01*
X119338445Y-66726405D01*
X119343402Y-66656712D01*
X119364465Y-66623936D01*
X119362900Y-66622722D01*
X119367685Y-66616552D01*
X119451281Y-66475198D01*
X119497100Y-66317486D01*
X119497295Y-66315001D01*
X119497295Y-66315000D01*
X118275000Y-66315000D01*
X118275000Y-67085000D01*
X117775000Y-67085000D01*
X117775000Y-65815000D01*
X118275000Y-65815000D01*
X119497295Y-65815000D01*
X119497295Y-65814998D01*
X119497100Y-65812513D01*
X119451281Y-65654801D01*
X119367685Y-65513447D01*
X119362900Y-65507278D01*
X119365252Y-65505453D01*
X119338445Y-65456405D01*
X119343402Y-65386712D01*
X119364465Y-65353936D01*
X119362900Y-65352722D01*
X119367685Y-65346552D01*
X119451281Y-65205198D01*
X119497100Y-65047486D01*
X119497295Y-65045001D01*
X119497295Y-65045000D01*
X118275000Y-65045000D01*
X118275000Y-65815000D01*
X117775000Y-65815000D01*
X117775000Y-64919000D01*
X117794685Y-64851961D01*
X117847489Y-64806206D01*
X117899000Y-64795000D01*
X118072212Y-64795000D01*
X118076862Y-64794500D01*
X119992060Y-64794500D01*
X120059099Y-64814185D01*
G37*
%TD.AperFunction*%
%TA.AperFunction,Conductor*%
G36*
X140942539Y-60020185D02*
G01*
X140988294Y-60072989D01*
X140999500Y-60124500D01*
X140999500Y-79875500D01*
X140979815Y-79942539D01*
X140927011Y-79988294D01*
X140875500Y-79999500D01*
X114124500Y-79999500D01*
X114057461Y-79979815D01*
X114011706Y-79927011D01*
X114000500Y-79875500D01*
X114000500Y-72780423D01*
X114503500Y-72780423D01*
X114503500Y-73889576D01*
X114534261Y-74044219D01*
X114534264Y-74044231D01*
X114594602Y-74189902D01*
X114594609Y-74189915D01*
X114682210Y-74321018D01*
X114682213Y-74321022D01*
X115999511Y-75638319D01*
X116032996Y-75699642D01*
X116028012Y-75769334D01*
X115986140Y-75825267D01*
X115920676Y-75849684D01*
X115911830Y-75850000D01*
X115902155Y-75850000D01*
X115842627Y-75856401D01*
X115842620Y-75856403D01*
X115707913Y-75906645D01*
X115707906Y-75906649D01*
X115592812Y-75992809D01*
X115592809Y-75992812D01*
X115506649Y-76107906D01*
X115506645Y-76107913D01*
X115456403Y-76242620D01*
X115456401Y-76242627D01*
X115450000Y-76302155D01*
X115450000Y-76950000D01*
X116366988Y-76950000D01*
X116334075Y-77007007D01*
X116300000Y-77134174D01*
X116300000Y-77265826D01*
X116334075Y-77392993D01*
X116366988Y-77450000D01*
X115450000Y-77450000D01*
X115450000Y-78097844D01*
X115456401Y-78157372D01*
X115456403Y-78157379D01*
X115506645Y-78292086D01*
X115506649Y-78292093D01*
X115592809Y-78407187D01*
X115592812Y-78407190D01*
X115707906Y-78493350D01*
X115707913Y-78493354D01*
X115842620Y-78543596D01*
X115842627Y-78543598D01*
X115902155Y-78549999D01*
X115902172Y-78550000D01*
X116550000Y-78550000D01*
X116550000Y-77633012D01*
X116607007Y-77665925D01*
X116734174Y-77700000D01*
X116865826Y-77700000D01*
X116992993Y-77665925D01*
X117050000Y-77633012D01*
X117050000Y-78550000D01*
X117697828Y-78550000D01*
X117697844Y-78549999D01*
X117757372Y-78543598D01*
X117757379Y-78543596D01*
X117892086Y-78493354D01*
X117892093Y-78493350D01*
X118007187Y-78407190D01*
X118007190Y-78407187D01*
X118093350Y-78292093D01*
X118093354Y-78292086D01*
X118142422Y-78160529D01*
X118184293Y-78104595D01*
X118249757Y-78080178D01*
X118318030Y-78095030D01*
X118346285Y-78116181D01*
X118460213Y-78230109D01*
X118632179Y-78355048D01*
X118632181Y-78355049D01*
X118632184Y-78355051D01*
X118821588Y-78451557D01*
X119023757Y-78517246D01*
X119233713Y-78550500D01*
X119233714Y-78550500D01*
X119446286Y-78550500D01*
X119446287Y-78550500D01*
X119656243Y-78517246D01*
X119858412Y-78451557D01*
X120047816Y-78355051D01*
X120134471Y-78292093D01*
X120219786Y-78230109D01*
X120219788Y-78230106D01*
X120219792Y-78230104D01*
X120370104Y-78079792D01*
X120370106Y-78079788D01*
X120370109Y-78079786D01*
X120495048Y-77907820D01*
X120495047Y-77907820D01*
X120495051Y-77907816D01*
X120499514Y-77899054D01*
X120547488Y-77848259D01*
X120615308Y-77831463D01*
X120681444Y-77853999D01*
X120720486Y-77899056D01*
X120724951Y-77907820D01*
X120849890Y-78079786D01*
X121000213Y-78230109D01*
X121172179Y-78355048D01*
X121172181Y-78355049D01*
X121172184Y-78355051D01*
X121361588Y-78451557D01*
X121563757Y-78517246D01*
X121773713Y-78550500D01*
X121773714Y-78550500D01*
X121986286Y-78550500D01*
X121986287Y-78550500D01*
X122196243Y-78517246D01*
X122398412Y-78451557D01*
X122587816Y-78355051D01*
X122674471Y-78292093D01*
X122759786Y-78230109D01*
X122759788Y-78230106D01*
X122759792Y-78230104D01*
X122910104Y-78079792D01*
X122910106Y-78079788D01*
X122910109Y-78079786D01*
X123035048Y-77907820D01*
X123035047Y-77907820D01*
X123035051Y-77907816D01*
X123039514Y-77899054D01*
X123087488Y-77848259D01*
X123155308Y-77831463D01*
X123221444Y-77853999D01*
X123260486Y-77899056D01*
X123264951Y-77907820D01*
X123389890Y-78079786D01*
X123540213Y-78230109D01*
X123712179Y-78355048D01*
X123712181Y-78355049D01*
X123712184Y-78355051D01*
X123901588Y-78451557D01*
X124103757Y-78517246D01*
X124313713Y-78550500D01*
X124313714Y-78550500D01*
X124526286Y-78550500D01*
X124526287Y-78550500D01*
X124736243Y-78517246D01*
X124938412Y-78451557D01*
X125127816Y-78355051D01*
X125214471Y-78292093D01*
X125299786Y-78230109D01*
X125299788Y-78230106D01*
X125299792Y-78230104D01*
X125450104Y-78079792D01*
X125450106Y-78079788D01*
X125450109Y-78079786D01*
X125575048Y-77907820D01*
X125575047Y-77907820D01*
X125575051Y-77907816D01*
X125579514Y-77899054D01*
X125627488Y-77848259D01*
X125695308Y-77831463D01*
X125761444Y-77853999D01*
X125800486Y-77899056D01*
X125804951Y-77907820D01*
X125929890Y-78079786D01*
X126080213Y-78230109D01*
X126252179Y-78355048D01*
X126252181Y-78355049D01*
X126252184Y-78355051D01*
X126441588Y-78451557D01*
X126643757Y-78517246D01*
X126853713Y-78550500D01*
X126853714Y-78550500D01*
X127066286Y-78550500D01*
X127066287Y-78550500D01*
X127276243Y-78517246D01*
X127478412Y-78451557D01*
X127667816Y-78355051D01*
X127754471Y-78292093D01*
X127839786Y-78230109D01*
X127839788Y-78230106D01*
X127839792Y-78230104D01*
X127990104Y-78079792D01*
X127990106Y-78079788D01*
X127990109Y-78079786D01*
X128115048Y-77907820D01*
X128115047Y-77907820D01*
X128115051Y-77907816D01*
X128211557Y-77718412D01*
X128277246Y-77516243D01*
X128310500Y-77306287D01*
X128310500Y-77093713D01*
X128277246Y-76883757D01*
X128211557Y-76681588D01*
X128115051Y-76492184D01*
X128115049Y-76492181D01*
X128115048Y-76492179D01*
X127990109Y-76320213D01*
X127839786Y-76169890D01*
X127667820Y-76044951D01*
X127478414Y-75948444D01*
X127478413Y-75948443D01*
X127478412Y-75948443D01*
X127276243Y-75882754D01*
X127276241Y-75882753D01*
X127276240Y-75882753D01*
X127114957Y-75857208D01*
X127066287Y-75849500D01*
X126853713Y-75849500D01*
X126825006Y-75854046D01*
X126643757Y-75882753D01*
X126601473Y-75896492D01*
X126531632Y-75898486D01*
X126475476Y-75866241D01*
X125453590Y-74844355D01*
X125453588Y-74844352D01*
X125334717Y-74725481D01*
X125334716Y-74725480D01*
X125247904Y-74675360D01*
X125247904Y-74675359D01*
X125247900Y-74675358D01*
X125197785Y-74646423D01*
X125045057Y-74605499D01*
X124886943Y-74605499D01*
X124879347Y-74605499D01*
X124879331Y-74605500D01*
X123099000Y-74605500D01*
X123090314Y-74602949D01*
X123081353Y-74604238D01*
X123057312Y-74593259D01*
X123031961Y-74585815D01*
X123026033Y-74578974D01*
X123017797Y-74575213D01*
X123003507Y-74552978D01*
X122986206Y-74533011D01*
X122983918Y-74522496D01*
X122980023Y-74516435D01*
X122975000Y-74481500D01*
X122975000Y-74479000D01*
X122994685Y-74411961D01*
X123047489Y-74366206D01*
X123099000Y-74355000D01*
X124447295Y-74355000D01*
X124447295Y-74354998D01*
X124447100Y-74352511D01*
X124447099Y-74352505D01*
X124430129Y-74294095D01*
X124430328Y-74224226D01*
X124468270Y-74165556D01*
X124531908Y-74136712D01*
X124549205Y-74135500D01*
X126831049Y-74135500D01*
X126898088Y-74155185D01*
X126918730Y-74171819D01*
X130613181Y-77866270D01*
X130646666Y-77927593D01*
X130649500Y-77953951D01*
X130649500Y-78597870D01*
X130649501Y-78597876D01*
X130655908Y-78657483D01*
X130706202Y-78792328D01*
X130706206Y-78792335D01*
X130792452Y-78907544D01*
X130792455Y-78907547D01*
X130907664Y-78993793D01*
X130907671Y-78993797D01*
X131042517Y-79044091D01*
X131042516Y-79044091D01*
X131049444Y-79044835D01*
X131102127Y-79050500D01*
X136297872Y-79050499D01*
X136357483Y-79044091D01*
X136492331Y-78993796D01*
X136607546Y-78907546D01*
X136693796Y-78792331D01*
X136744091Y-78657483D01*
X136750500Y-78597873D01*
X136750499Y-76002128D01*
X136744091Y-75942517D01*
X136721800Y-75882753D01*
X136693797Y-75807671D01*
X136693793Y-75807664D01*
X136607547Y-75692455D01*
X136607544Y-75692452D01*
X136492335Y-75606206D01*
X136492328Y-75606202D01*
X136357482Y-75555908D01*
X136357483Y-75555908D01*
X136297883Y-75549501D01*
X136297881Y-75549500D01*
X136297873Y-75549500D01*
X136297864Y-75549500D01*
X131102129Y-75549500D01*
X131102123Y-75549501D01*
X131042516Y-75555908D01*
X130907671Y-75606202D01*
X130907664Y-75606206D01*
X130827608Y-75666136D01*
X130762144Y-75690553D01*
X130693871Y-75675701D01*
X130665617Y-75654550D01*
X128884326Y-73873258D01*
X128845973Y-73834905D01*
X129918646Y-73834905D01*
X130230405Y-74101173D01*
X130586404Y-74359821D01*
X130586415Y-74359828D01*
X130961590Y-74589737D01*
X130961597Y-74589740D01*
X131353698Y-74789526D01*
X131760254Y-74957927D01*
X132178749Y-75093903D01*
X132178772Y-75093910D01*
X132606653Y-75196636D01*
X133041281Y-75265473D01*
X133479969Y-75299999D01*
X133479983Y-75300000D01*
X133920017Y-75300000D01*
X133920030Y-75299999D01*
X134358717Y-75265473D01*
X134358718Y-75265473D01*
X134793346Y-75196636D01*
X135221227Y-75093910D01*
X135221250Y-75093903D01*
X135639745Y-74957927D01*
X136046301Y-74789526D01*
X136438402Y-74589740D01*
X136438409Y-74589737D01*
X136813584Y-74359828D01*
X136813595Y-74359821D01*
X137169594Y-74101173D01*
X137481352Y-73834905D01*
X133700000Y-70053554D01*
X129918646Y-73834905D01*
X128845973Y-73834905D01*
X127724281Y-72713213D01*
X127724277Y-72713210D01*
X127593174Y-72625609D01*
X127593161Y-72625602D01*
X127447490Y-72565264D01*
X127447478Y-72565261D01*
X127292834Y-72534500D01*
X127292831Y-72534500D01*
X124854098Y-72534500D01*
X124787059Y-72514815D01*
X124741304Y-72462011D01*
X124731360Y-72392853D01*
X124760385Y-72329297D01*
X124766417Y-72322818D01*
X124771668Y-72317567D01*
X124855520Y-72233716D01*
X124934577Y-72096784D01*
X124975501Y-71944057D01*
X124975501Y-71785942D01*
X124975501Y-71778347D01*
X124975500Y-71778329D01*
X124975500Y-69529500D01*
X124990044Y-69479969D01*
X128100000Y-69479969D01*
X128100000Y-69920030D01*
X128134526Y-70358717D01*
X128134526Y-70358718D01*
X128203363Y-70793346D01*
X128306089Y-71221227D01*
X128306096Y-71221250D01*
X128442072Y-71639745D01*
X128610473Y-72046301D01*
X128810259Y-72438402D01*
X128810262Y-72438409D01*
X129040171Y-72813584D01*
X129040178Y-72813595D01*
X129298826Y-73169593D01*
X129298836Y-73169607D01*
X129565093Y-73481352D01*
X133346446Y-69700000D01*
X133346446Y-69699999D01*
X134053554Y-69699999D01*
X134053554Y-69700001D01*
X137834905Y-73481352D01*
X138101173Y-73169594D01*
X138359821Y-72813595D01*
X138359828Y-72813584D01*
X138589737Y-72438409D01*
X138589740Y-72438402D01*
X138789526Y-72046301D01*
X138957927Y-71639745D01*
X139093903Y-71221250D01*
X139093910Y-71221227D01*
X139196636Y-70793346D01*
X139265473Y-70358718D01*
X139265473Y-70358717D01*
X139299999Y-69920030D01*
X139300000Y-69920017D01*
X139300000Y-69479982D01*
X139299999Y-69479969D01*
X139265473Y-69041282D01*
X139265473Y-69041281D01*
X139196636Y-68606653D01*
X139093910Y-68178772D01*
X139093903Y-68178749D01*
X138957927Y-67760254D01*
X138789526Y-67353698D01*
X138589740Y-66961597D01*
X138589737Y-66961590D01*
X138359828Y-66586415D01*
X138359821Y-66586404D01*
X138101173Y-66230405D01*
X137834905Y-65918646D01*
X134053554Y-69699999D01*
X133346446Y-69699999D01*
X129565093Y-65918646D01*
X129298837Y-66230392D01*
X129298826Y-66230406D01*
X129040178Y-66586404D01*
X129040171Y-66586415D01*
X128810262Y-66961590D01*
X128810259Y-66961597D01*
X128610473Y-67353698D01*
X128442072Y-67760254D01*
X128306096Y-68178749D01*
X128306089Y-68178772D01*
X128203363Y-68606653D01*
X128134526Y-69041281D01*
X128134526Y-69041282D01*
X128100000Y-69479969D01*
X124990044Y-69479969D01*
X124995185Y-69462461D01*
X125047989Y-69416706D01*
X125099500Y-69405500D01*
X125727126Y-69405500D01*
X125764016Y-69411115D01*
X125895063Y-69451951D01*
X125895065Y-69451951D01*
X125895067Y-69451952D01*
X125961619Y-69458000D01*
X126388380Y-69457999D01*
X126388388Y-69457999D01*
X126454926Y-69451953D01*
X126454927Y-69451952D01*
X126454933Y-69451952D01*
X126608069Y-69404233D01*
X126745335Y-69321253D01*
X126858753Y-69207835D01*
X126941733Y-69070569D01*
X126989452Y-68917433D01*
X126995500Y-68850881D01*
X126995499Y-68349120D01*
X126995499Y-68349111D01*
X126989453Y-68282573D01*
X126989452Y-68282570D01*
X126989452Y-68282567D01*
X126941733Y-68129431D01*
X126903779Y-68066649D01*
X126885944Y-67999095D01*
X126903780Y-67938350D01*
X126941733Y-67875569D01*
X126989452Y-67722433D01*
X126995500Y-67655881D01*
X126995499Y-67154120D01*
X126995499Y-67154111D01*
X126989453Y-67087570D01*
X126989452Y-67087566D01*
X126981115Y-67060813D01*
X126975500Y-67023921D01*
X126975500Y-66686160D01*
X126975499Y-66686152D01*
X126975020Y-66683741D01*
X126975020Y-66683740D01*
X126959879Y-66607624D01*
X126944737Y-66531502D01*
X126927570Y-66490060D01*
X126914078Y-66457485D01*
X126914068Y-66457464D01*
X126914056Y-66457433D01*
X126884394Y-66385821D01*
X126796789Y-66254711D01*
X126685289Y-66143211D01*
X126481078Y-65939000D01*
X126244182Y-65702103D01*
X126107172Y-65565093D01*
X129918646Y-65565093D01*
X133699999Y-69346446D01*
X137481352Y-65565093D01*
X137169607Y-65298836D01*
X137169593Y-65298826D01*
X136813595Y-65040178D01*
X136813584Y-65040171D01*
X136438409Y-64810262D01*
X136438402Y-64810259D01*
X136046301Y-64610473D01*
X135639745Y-64442072D01*
X135221250Y-64306096D01*
X135221227Y-64306089D01*
X134793346Y-64203363D01*
X134358718Y-64134526D01*
X133920030Y-64100000D01*
X133479969Y-64100000D01*
X133041282Y-64134526D01*
X133041281Y-64134526D01*
X132606653Y-64203363D01*
X132178772Y-64306089D01*
X132178749Y-64306096D01*
X131760254Y-64442072D01*
X131353698Y-64610473D01*
X130961597Y-64810259D01*
X130961590Y-64810262D01*
X130586415Y-65040171D01*
X130586404Y-65040178D01*
X130230406Y-65298826D01*
X130230392Y-65298837D01*
X129918646Y-65565093D01*
X126107172Y-65565093D01*
X126060292Y-65518213D01*
X126060288Y-65518210D01*
X125929185Y-65430609D01*
X125929172Y-65430602D01*
X125783497Y-65370262D01*
X125780476Y-65369346D01*
X125779089Y-65368437D01*
X125777870Y-65367932D01*
X125777965Y-65367700D01*
X125722042Y-65331042D01*
X125701924Y-65298144D01*
X125684394Y-65255821D01*
X125596789Y-65124711D01*
X125485289Y-65013211D01*
X125082551Y-64610473D01*
X124645292Y-64173213D01*
X124645287Y-64173209D01*
X124630606Y-64163399D01*
X124625516Y-64157309D01*
X124618297Y-64154012D01*
X124603432Y-64130881D01*
X124585803Y-64109786D01*
X124583851Y-64100413D01*
X124580523Y-64095234D01*
X124575500Y-64060299D01*
X124575500Y-63932230D01*
X124595185Y-63865191D01*
X124611819Y-63844549D01*
X124612277Y-63844091D01*
X124617712Y-63838656D01*
X124619752Y-63835347D01*
X124621745Y-63833555D01*
X124622193Y-63832989D01*
X124622289Y-63833065D01*
X124671694Y-63788623D01*
X124740656Y-63777395D01*
X124804740Y-63805234D01*
X124830829Y-63835339D01*
X124832681Y-63838341D01*
X124832683Y-63838344D01*
X124956654Y-63962315D01*
X125105875Y-64054356D01*
X125105880Y-64054358D01*
X125272302Y-64109505D01*
X125272309Y-64109506D01*
X125375019Y-64119999D01*
X125925000Y-64119999D01*
X125974972Y-64119999D01*
X125974986Y-64119998D01*
X126077697Y-64109505D01*
X126244119Y-64054358D01*
X126244124Y-64054356D01*
X126393345Y-63962315D01*
X126517315Y-63838345D01*
X126609356Y-63689124D01*
X126609358Y-63689119D01*
X126664505Y-63522697D01*
X126664506Y-63522690D01*
X126674999Y-63419986D01*
X126675000Y-63419973D01*
X126675000Y-63145000D01*
X125925000Y-63145000D01*
X125925000Y-64119999D01*
X125375019Y-64119999D01*
X125424999Y-64119998D01*
X125425000Y-64119998D01*
X125425000Y-62645000D01*
X125925000Y-62645000D01*
X126674999Y-62645000D01*
X126674999Y-62370028D01*
X126674998Y-62370013D01*
X126664505Y-62267302D01*
X126609358Y-62100880D01*
X126609356Y-62100875D01*
X126517315Y-61951654D01*
X126393345Y-61827684D01*
X126244124Y-61735643D01*
X126244119Y-61735641D01*
X126077697Y-61680494D01*
X126077690Y-61680493D01*
X125974986Y-61670000D01*
X125925000Y-61670000D01*
X125925000Y-62645000D01*
X125425000Y-62645000D01*
X125425000Y-61670000D01*
X125424999Y-61669999D01*
X125375029Y-61670000D01*
X125375011Y-61670001D01*
X125272302Y-61680494D01*
X125105880Y-61735641D01*
X125105875Y-61735643D01*
X124956654Y-61827684D01*
X124832683Y-61951655D01*
X124832679Y-61951660D01*
X124830826Y-61954665D01*
X124829018Y-61956290D01*
X124828202Y-61957323D01*
X124828025Y-61957183D01*
X124778874Y-62001385D01*
X124709911Y-62012601D01*
X124645831Y-61984752D01*
X124619753Y-61954653D01*
X124619737Y-61954628D01*
X124617712Y-61951344D01*
X124493656Y-61827288D01*
X124344334Y-61735186D01*
X124177797Y-61680001D01*
X124177795Y-61680000D01*
X124075010Y-61669500D01*
X123474998Y-61669500D01*
X123474980Y-61669501D01*
X123372203Y-61680000D01*
X123372200Y-61680001D01*
X123205668Y-61735185D01*
X123205663Y-61735187D01*
X123056342Y-61827289D01*
X122932289Y-61951342D01*
X122840187Y-62100663D01*
X122840185Y-62100668D01*
X122840115Y-62100880D01*
X122785001Y-62267203D01*
X122785001Y-62267204D01*
X122785000Y-62267204D01*
X122774500Y-62369983D01*
X122774500Y-63420001D01*
X122774501Y-63420019D01*
X122785000Y-63522796D01*
X122785001Y-63522799D01*
X122818508Y-63623914D01*
X122840116Y-63689124D01*
X122842458Y-63696189D01*
X122839860Y-63697049D01*
X122841361Y-63706931D01*
X122849267Y-63728128D01*
X122846507Y-63740813D01*
X122848457Y-63753646D01*
X122839224Y-63774295D01*
X122834416Y-63796401D01*
X122821814Y-63813234D01*
X122819939Y-63817430D01*
X122813265Y-63824656D01*
X122679739Y-63958182D01*
X122618419Y-63991666D01*
X122592060Y-63994500D01*
X121558940Y-63994500D01*
X121491901Y-63974815D01*
X121471259Y-63958181D01*
X120885292Y-63372213D01*
X120885288Y-63372210D01*
X120754185Y-63284609D01*
X120754172Y-63284602D01*
X120608501Y-63224264D01*
X120608489Y-63224261D01*
X120453845Y-63193500D01*
X120453842Y-63193500D01*
X117005032Y-63193500D01*
X116847347Y-63193500D01*
X116847345Y-63193500D01*
X116692698Y-63224261D01*
X116692688Y-63224264D01*
X116547017Y-63284602D01*
X116547004Y-63284609D01*
X116415901Y-63372210D01*
X116415897Y-63372213D01*
X116098993Y-63689119D01*
X116038711Y-63749401D01*
X116010717Y-63777395D01*
X115927209Y-63860902D01*
X115839609Y-63992004D01*
X115839602Y-63992017D01*
X115779264Y-64137688D01*
X115779261Y-64137700D01*
X115748500Y-64292343D01*
X115748500Y-71231633D01*
X115728815Y-71298672D01*
X115688650Y-71337750D01*
X115554666Y-71418745D01*
X115441246Y-71532165D01*
X115441245Y-71532167D01*
X115360714Y-71665381D01*
X115342278Y-71688912D01*
X114797481Y-72233711D01*
X114793711Y-72237481D01*
X114750506Y-72280686D01*
X114682209Y-72348982D01*
X114594609Y-72480084D01*
X114594602Y-72480097D01*
X114534264Y-72625768D01*
X114534261Y-72625780D01*
X114503500Y-72780423D01*
X114000500Y-72780423D01*
X114000500Y-60802135D01*
X130649500Y-60802135D01*
X130649500Y-63397870D01*
X130649501Y-63397876D01*
X130655908Y-63457483D01*
X130706202Y-63592328D01*
X130706206Y-63592335D01*
X130792452Y-63707544D01*
X130792455Y-63707547D01*
X130907664Y-63793793D01*
X130907671Y-63793797D01*
X131042517Y-63844091D01*
X131042516Y-63844091D01*
X131049444Y-63844835D01*
X131102127Y-63850500D01*
X136297872Y-63850499D01*
X136357483Y-63844091D01*
X136492331Y-63793796D01*
X136607546Y-63707546D01*
X136693796Y-63592331D01*
X136744091Y-63457483D01*
X136750500Y-63397873D01*
X136750499Y-60802128D01*
X136744091Y-60742517D01*
X136693796Y-60607669D01*
X136693795Y-60607668D01*
X136693793Y-60607664D01*
X136607547Y-60492455D01*
X136607544Y-60492452D01*
X136492335Y-60406206D01*
X136492328Y-60406202D01*
X136357482Y-60355908D01*
X136357483Y-60355908D01*
X136297883Y-60349501D01*
X136297881Y-60349500D01*
X136297873Y-60349500D01*
X136297864Y-60349500D01*
X131102129Y-60349500D01*
X131102123Y-60349501D01*
X131042516Y-60355908D01*
X130907671Y-60406202D01*
X130907664Y-60406206D01*
X130792455Y-60492452D01*
X130792452Y-60492455D01*
X130706206Y-60607664D01*
X130706202Y-60607671D01*
X130655908Y-60742517D01*
X130649501Y-60802116D01*
X130649501Y-60802123D01*
X130649500Y-60802135D01*
X114000500Y-60802135D01*
X114000500Y-60124500D01*
X114020185Y-60057461D01*
X114072989Y-60011706D01*
X114124500Y-60000500D01*
X140875500Y-60000500D01*
X140942539Y-60020185D01*
G37*
%TD.AperFunction*%
%TD*%
M02*
