%TF.GenerationSoftware,KiCad,Pcbnew,9.0.5*%
%TF.CreationDate,2026-02-18T13:17:51-05:00*%
%TF.ProjectId,rtc+nvm,7274632b-6e76-46d2-9e6b-696361645f70,rev?*%
%TF.SameCoordinates,Original*%
%TF.FileFunction,Legend,Top*%
%TF.FilePolarity,Positive*%
%FSLAX46Y46*%
G04 Gerber Fmt 4.6, Leading zero omitted, Abs format (unit mm)*
G04 Created by KiCad (PCBNEW 9.0.5) date 2026-02-18 13:17:51*
%MOMM*%
%LPD*%
G01*
G04 APERTURE LIST*
%ADD10C,0.150000*%
%ADD11C,0.120000*%
G04 APERTURE END LIST*
D10*
X124558333Y-61574580D02*
X124510714Y-61622200D01*
X124510714Y-61622200D02*
X124367857Y-61669819D01*
X124367857Y-61669819D02*
X124272619Y-61669819D01*
X124272619Y-61669819D02*
X124129762Y-61622200D01*
X124129762Y-61622200D02*
X124034524Y-61526961D01*
X124034524Y-61526961D02*
X123986905Y-61431723D01*
X123986905Y-61431723D02*
X123939286Y-61241247D01*
X123939286Y-61241247D02*
X123939286Y-61098390D01*
X123939286Y-61098390D02*
X123986905Y-60907914D01*
X123986905Y-60907914D02*
X124034524Y-60812676D01*
X124034524Y-60812676D02*
X124129762Y-60717438D01*
X124129762Y-60717438D02*
X124272619Y-60669819D01*
X124272619Y-60669819D02*
X124367857Y-60669819D01*
X124367857Y-60669819D02*
X124510714Y-60717438D01*
X124510714Y-60717438D02*
X124558333Y-60765057D01*
X125510714Y-61669819D02*
X124939286Y-61669819D01*
X125225000Y-61669819D02*
X125225000Y-60669819D01*
X125225000Y-60669819D02*
X125129762Y-60812676D01*
X125129762Y-60812676D02*
X125034524Y-60907914D01*
X125034524Y-60907914D02*
X124939286Y-60955533D01*
X124534377Y-72152427D02*
X124534377Y-72961950D01*
X124534377Y-72961950D02*
X124581996Y-73057188D01*
X124581996Y-73057188D02*
X124629615Y-73104808D01*
X124629615Y-73104808D02*
X124724853Y-73152427D01*
X124724853Y-73152427D02*
X124915329Y-73152427D01*
X124915329Y-73152427D02*
X125010567Y-73104808D01*
X125010567Y-73104808D02*
X125058186Y-73057188D01*
X125058186Y-73057188D02*
X125105805Y-72961950D01*
X125105805Y-72961950D02*
X125105805Y-72152427D01*
X126105805Y-73152427D02*
X125534377Y-73152427D01*
X125820091Y-73152427D02*
X125820091Y-72152427D01*
X125820091Y-72152427D02*
X125724853Y-72295284D01*
X125724853Y-72295284D02*
X125629615Y-72390522D01*
X125629615Y-72390522D02*
X125534377Y-72438141D01*
X113874819Y-77533333D02*
X114589104Y-77533333D01*
X114589104Y-77533333D02*
X114731961Y-77580952D01*
X114731961Y-77580952D02*
X114827200Y-77676190D01*
X114827200Y-77676190D02*
X114874819Y-77819047D01*
X114874819Y-77819047D02*
X114874819Y-77914285D01*
X113970057Y-77104761D02*
X113922438Y-77057142D01*
X113922438Y-77057142D02*
X113874819Y-76961904D01*
X113874819Y-76961904D02*
X113874819Y-76723809D01*
X113874819Y-76723809D02*
X113922438Y-76628571D01*
X113922438Y-76628571D02*
X113970057Y-76580952D01*
X113970057Y-76580952D02*
X114065295Y-76533333D01*
X114065295Y-76533333D02*
X114160533Y-76533333D01*
X114160533Y-76533333D02*
X114303390Y-76580952D01*
X114303390Y-76580952D02*
X114874819Y-77152380D01*
X114874819Y-77152380D02*
X114874819Y-76533333D01*
X125429819Y-64901666D02*
X124953628Y-65234999D01*
X125429819Y-65473094D02*
X124429819Y-65473094D01*
X124429819Y-65473094D02*
X124429819Y-65092142D01*
X124429819Y-65092142D02*
X124477438Y-64996904D01*
X124477438Y-64996904D02*
X124525057Y-64949285D01*
X124525057Y-64949285D02*
X124620295Y-64901666D01*
X124620295Y-64901666D02*
X124763152Y-64901666D01*
X124763152Y-64901666D02*
X124858390Y-64949285D01*
X124858390Y-64949285D02*
X124906009Y-64996904D01*
X124906009Y-64996904D02*
X124953628Y-65092142D01*
X124953628Y-65092142D02*
X124953628Y-65473094D01*
X124525057Y-64520713D02*
X124477438Y-64473094D01*
X124477438Y-64473094D02*
X124429819Y-64377856D01*
X124429819Y-64377856D02*
X124429819Y-64139761D01*
X124429819Y-64139761D02*
X124477438Y-64044523D01*
X124477438Y-64044523D02*
X124525057Y-63996904D01*
X124525057Y-63996904D02*
X124620295Y-63949285D01*
X124620295Y-63949285D02*
X124715533Y-63949285D01*
X124715533Y-63949285D02*
X124858390Y-63996904D01*
X124858390Y-63996904D02*
X125429819Y-64568332D01*
X125429819Y-64568332D02*
X125429819Y-63949285D01*
X119738095Y-62654819D02*
X119738095Y-63464342D01*
X119738095Y-63464342D02*
X119785714Y-63559580D01*
X119785714Y-63559580D02*
X119833333Y-63607200D01*
X119833333Y-63607200D02*
X119928571Y-63654819D01*
X119928571Y-63654819D02*
X120119047Y-63654819D01*
X120119047Y-63654819D02*
X120214285Y-63607200D01*
X120214285Y-63607200D02*
X120261904Y-63559580D01*
X120261904Y-63559580D02*
X120309523Y-63464342D01*
X120309523Y-63464342D02*
X120309523Y-62654819D01*
X120738095Y-62750057D02*
X120785714Y-62702438D01*
X120785714Y-62702438D02*
X120880952Y-62654819D01*
X120880952Y-62654819D02*
X121119047Y-62654819D01*
X121119047Y-62654819D02*
X121214285Y-62702438D01*
X121214285Y-62702438D02*
X121261904Y-62750057D01*
X121261904Y-62750057D02*
X121309523Y-62845295D01*
X121309523Y-62845295D02*
X121309523Y-62940533D01*
X121309523Y-62940533D02*
X121261904Y-63083390D01*
X121261904Y-63083390D02*
X120690476Y-63654819D01*
X120690476Y-63654819D02*
X121309523Y-63654819D01*
X126629819Y-66171666D02*
X126153628Y-66504999D01*
X126629819Y-66743094D02*
X125629819Y-66743094D01*
X125629819Y-66743094D02*
X125629819Y-66362142D01*
X125629819Y-66362142D02*
X125677438Y-66266904D01*
X125677438Y-66266904D02*
X125725057Y-66219285D01*
X125725057Y-66219285D02*
X125820295Y-66171666D01*
X125820295Y-66171666D02*
X125963152Y-66171666D01*
X125963152Y-66171666D02*
X126058390Y-66219285D01*
X126058390Y-66219285D02*
X126106009Y-66266904D01*
X126106009Y-66266904D02*
X126153628Y-66362142D01*
X126153628Y-66362142D02*
X126153628Y-66743094D01*
X126629819Y-65219285D02*
X126629819Y-65790713D01*
X126629819Y-65504999D02*
X125629819Y-65504999D01*
X125629819Y-65504999D02*
X125772676Y-65600237D01*
X125772676Y-65600237D02*
X125867914Y-65695475D01*
X125867914Y-65695475D02*
X125915533Y-65790713D01*
X115409819Y-72904166D02*
X114933628Y-73237499D01*
X115409819Y-73475594D02*
X114409819Y-73475594D01*
X114409819Y-73475594D02*
X114409819Y-73094642D01*
X114409819Y-73094642D02*
X114457438Y-72999404D01*
X114457438Y-72999404D02*
X114505057Y-72951785D01*
X114505057Y-72951785D02*
X114600295Y-72904166D01*
X114600295Y-72904166D02*
X114743152Y-72904166D01*
X114743152Y-72904166D02*
X114838390Y-72951785D01*
X114838390Y-72951785D02*
X114886009Y-72999404D01*
X114886009Y-72999404D02*
X114933628Y-73094642D01*
X114933628Y-73094642D02*
X114933628Y-73475594D01*
X114409819Y-72570832D02*
X114409819Y-71951785D01*
X114409819Y-71951785D02*
X114790771Y-72285118D01*
X114790771Y-72285118D02*
X114790771Y-72142261D01*
X114790771Y-72142261D02*
X114838390Y-72047023D01*
X114838390Y-72047023D02*
X114886009Y-71999404D01*
X114886009Y-71999404D02*
X114981247Y-71951785D01*
X114981247Y-71951785D02*
X115219342Y-71951785D01*
X115219342Y-71951785D02*
X115314580Y-71999404D01*
X115314580Y-71999404D02*
X115362200Y-72047023D01*
X115362200Y-72047023D02*
X115409819Y-72142261D01*
X115409819Y-72142261D02*
X115409819Y-72427975D01*
X115409819Y-72427975D02*
X115362200Y-72523213D01*
X115362200Y-72523213D02*
X115314580Y-72570832D01*
X139154819Y-70033333D02*
X139869104Y-70033333D01*
X139869104Y-70033333D02*
X140011961Y-70080952D01*
X140011961Y-70080952D02*
X140107200Y-70176190D01*
X140107200Y-70176190D02*
X140154819Y-70319047D01*
X140154819Y-70319047D02*
X140154819Y-70414285D01*
X140154819Y-69033333D02*
X140154819Y-69604761D01*
X140154819Y-69319047D02*
X139154819Y-69319047D01*
X139154819Y-69319047D02*
X139297676Y-69414285D01*
X139297676Y-69414285D02*
X139392914Y-69509523D01*
X139392914Y-69509523D02*
X139440533Y-69604761D01*
D11*
%TO.C,C1*%
X124463748Y-62160000D02*
X124986252Y-62160000D01*
X124463748Y-63630000D02*
X124986252Y-63630000D01*
%TO.C,U1*%
X118440000Y-70140000D02*
X122560000Y-70140000D01*
X118440000Y-70235000D02*
X118440000Y-70140000D01*
X118440000Y-75260000D02*
X118440000Y-75165000D01*
X122560000Y-70140000D02*
X122560000Y-70235000D01*
X122560000Y-75165000D02*
X122560000Y-75260000D01*
X122560000Y-75260000D02*
X118440000Y-75260000D01*
X117900000Y-70230000D02*
X117660000Y-69900000D01*
X118140000Y-69900000D01*
X117900000Y-70230000D01*
G36*
X117900000Y-70230000D02*
G01*
X117660000Y-69900000D01*
X118140000Y-69900000D01*
X117900000Y-70230000D01*
G37*
%TO.C,J2*%
X115420000Y-78580000D02*
X115420000Y-77200000D01*
X116800000Y-78580000D02*
X115420000Y-78580000D01*
X118070000Y-75820000D02*
X128340000Y-75820000D01*
X118070000Y-78580000D02*
X118070000Y-75820000D01*
X118070000Y-78580000D02*
X128340000Y-78580000D01*
X128340000Y-78580000D02*
X128340000Y-75820000D01*
%TO.C,R2*%
X124595000Y-66905121D02*
X124595000Y-66569879D01*
X125355000Y-66905121D02*
X125355000Y-66569879D01*
%TO.C,U2*%
X118440000Y-64140000D02*
X122560000Y-64140000D01*
X118440000Y-64235000D02*
X118440000Y-64140000D01*
X118440000Y-69260000D02*
X118440000Y-69165000D01*
X122560000Y-64140000D02*
X122560000Y-64235000D01*
X122560000Y-69165000D02*
X122560000Y-69260000D01*
X122560000Y-69260000D02*
X118440000Y-69260000D01*
X117900000Y-64230000D02*
X117660000Y-63900000D01*
X118140000Y-63900000D01*
X117900000Y-64230000D01*
G36*
X117900000Y-64230000D02*
G01*
X117660000Y-63900000D01*
X118140000Y-63900000D01*
X117900000Y-64230000D01*
G37*
%TO.C,R1*%
X125795000Y-68170121D02*
X125795000Y-67834879D01*
X126555000Y-68170121D02*
X126555000Y-67834879D01*
%TO.C,R3*%
X115745000Y-72905121D02*
X115745000Y-72569879D01*
X116505000Y-72905121D02*
X116505000Y-72569879D01*
%TO.C,J1*%
X129300000Y-64800000D02*
X129300000Y-66700000D01*
X129300000Y-64800000D02*
X130950000Y-63150000D01*
X129300000Y-74600000D02*
X129300000Y-72700000D01*
X130950000Y-76250000D02*
X129300000Y-74600000D01*
X136550000Y-63150000D02*
X137900000Y-64300000D01*
X136550000Y-76250000D02*
X137900000Y-75100000D01*
X137900000Y-64300000D02*
G75*
G02*
X138396459Y-67198306I-1800000J-1800000D01*
G01*
X138397607Y-72204098D02*
G75*
G02*
X137900000Y-75100000I-2297607J-1095902D01*
G01*
%TD*%
M02*
